# xmcd
#
# Track frame offsets: 
#        150
#        18163
#        34845
#        53796
#        68499
#        81580
#        93069
#        105670
#        119922
#        133815
#        147799
#        160976
#        174145
#        193477
#        207198
#        220609
#        234173
#
# Disc length: 3300 seconds
#
# Revision: 2
# Processed by: cddbd v1.5.2PL0 Copyright (c) Steve Scherf et al.
# Submitted via: ExactAudioCopy v1.0b4
#
DISCID=e90ce211
DTITLE=Various Artist - Pure... Blues CD 2
DYEAR=2010
DGENRE=Blues
TTITLE0=Nina Simone - Blues For Mama
TTITLE1=Stevie Ray Vaughan and Double Trouble - Pride And Joy
TTITLE2=The Electric Flag - Killing Floor
TTITLE3=Chicken Shack - I'd Rather Go Blind
TTITLE4=Bill Jazz Gillum - Early In The Morning
TTITLE5=Bukka White - Give Me An Old, Old Lady
TTITLE6=Big Joe Williams - Baby, Please Don't Go
TTITLE7=Earl Hines and His Orchestra - Stormy Monday Blues
TTITLE8=Mildred Bailey - That Ain't Right
TTITLE9=Roosevelt Sykes and His Original Honeydrippers - Sunny Road
TTITLE10=Memphis Minnie - Bumble Bee Blues
TTITLE11=Big Maceo Merriweather - Worried Life Blues
TTITLE12=Jimmy Witherspoon with Jay McShann and His Band - Confessin' Th
TTITLE12=e Blues
TTITLE13=Lonnie Johnson - No More Women Blues
TTITLE14=Leroy Carr - When The Sun Goes Down
TTITLE15=Meade Lux Lewis - Honky Tonk Train Blues
TTITLE16=Memphis Slim - Beer Drinkin' Woman
EXTD=YEAR: 2010 ID3G: 0
EXTT0=
EXTT1=
EXTT2=
EXTT3=
EXTT4=
EXTT5=
EXTT6=
EXTT7=
EXTT8=
EXTT9=
EXTT10=
EXTT11=
EXTT12=
EXTT13=
EXTT14=
EXTT15=
EXTT16=
PLAYORDER=
